<?xml version="1.0" encoding="utf-8"?>
<!-- Generator: Adobe Illustrator 27.9.3, SVG Export Plug-In . SVG Version: 9.03 Build 53313)  -->
<svg version="1.1" id="Layer_2_00000138547494631255589950000007976910488928280736_"
	 xmlns="http://www.w3.org/2000/svg" xmlns:xlink="http://www.w3.org/1999/xlink" x="0px" y="0px" viewBox="0 0 862 683"
	 style="enable-background:new 0 0 862 683;" xml:space="preserve">
<style type="text/css">
	.st0{fill:#A4A4A5;}
	.st1{fill:#181C20;}
</style>
<g id="Layer_1-2">
	<g>
		<path class="st0" d="M296.1,268.4c-47,0.2-93.3,0.3-140.3,0.6c-6.4-3-10.5-8.4-9-15.2c0.8-6.2,5.1-9.6,11.5-9.6
			c54.2,0,108.5-0.5,162.7,0.4c11.9,0.2,16.7-17.9,17.9-20.3c7.9-1.1,21.4,3.4,21.9-8.1c0.1-7-5.3-8-10.8-8
			c-79.5-0.1-159.1-0.3-238.6-0.2c-20.1,2.4-19-24.8,0-24.1c91.7-0.1,183.3-0.4,275-0.6c5.9,0,10.3-1.8,10.1-8.1
			c-0.1-6.7-1.6-13.1-10.8-13.1c-46.5-0.4-98-0.4-142-0.4C258.7,68.5,367.8-8.5,464,3.3c143.6,11.1,243.5,177.4,182.4,308.3
			c-1.4,3-136.2,259.1-378.9,12.5l0,0c-0.7-7.4-4.9-10.1-12.1-10c-31.6,0.2-63.2-0.2-94.8,0.3c-8.7,0.1-12.6-3.3-12.6-11.2
			c0.1-8.2,4.8-12.2,13.1-12.2c46.2,0.1,92.5-0.5,138.7,0.3c9.1,0.1,13.6-3.5,15.1-8.2c2-6.5-2.5-13.3-9.2-14.5L296.1,268.4z"/>
		<path class="st0" d="M840.9,448.9c7.7,0.7,9.9,11,3.1,14.7C282.9,768.9,606.9,738,22.6,461.2c-7.5-3.6-10.9-10.8-11.6-19.3
			c-1.1-13.6,18.9-20.5,17.1-27.5c-1-3.9,1.5-7.9,5.3-9.2c61.3-19.2,127.1-25.7,179.4-63.5c0.2-0.2,0.5-0.3,0.7-0.4
			c5.6-3.2,11.1-5.6,17.6-4.3c0.2,0,0.5,0.1,0.7,0.2c78,21.8,163.3,54.2,206.9,127.6c3.1,5.2,10.5,5.1,13.5,0
			c40.7-68.7,116.7-101.7,190.2-123.9c0.2-0.1,0.4-0.1,0.7-0.2c25.1-10.5,41.3,7.5,60.8,17.8c44.9,22.6,94,29.9,141.6,44.6
			c6.6,2,7.6,10.9,1.6,14.3C837.8,422.7,840.9,448.9,840.9,448.9z"/>
		<path class="st1" d="M820.5,453.8C567.9,590.1,503.7,665.5,450.8,671.1c-63.4,6.7-108.2-82.1-411.6-220.6
			c-17.3-8.2,3.7-11.4,2-19.4C174.8,487.7,289.5,550.2,409,629.8c-89.9-99.5-204.3-154.6-324.2-216c147.6,18,278.7,91.9,348.7,218.5
			c9.8,17.8,25.6-2.7,31.5-12.4c72.5-116.3,204.1-188.3,337.7-206c-116.7,62.9-233.3,120.6-330.9,223
			c119.8-74.3,219.3-149.1,345.3-202C811.3,444.8,815.2,447.6,820.5,453.8L820.5,453.8z"/>
		<path class="st1" d="M642.9,340.8c-77.8,23.6-158.6,59.1-197.3,136.5c-41.1-82.4-131.7-117.1-214.1-140.1c11.1-6.7,28,2.5,35.9-13
			c9.6,2,19.2,3.9,29.5,6c-6.1-11-11.8-21.5-18-32.6h13.4c-0.8,5.9-1.9,15.2,3.7,16c9.4,1.3,18.6,9.6,29.5,0.5
			c7.5-6.2,19.1-18.3,28-3.5c8.5,14-8.3,15.8-15.5,21.8c-2.6,2.2-5.7,4-9.1,6.3c12.1,7,23.8,13.8,35.5,20.5
			c7.1-7.4,9.4-24.4,23.7-15.5c13.5,8.4-2,16.9-2.9,26.1c10.2,12.3,37,29,35.9,29.9c8.2,9.7,16.1,19.1,24.5,29
			c17.4-22.1,37.3-41.3,60-57.1c-0.8-9.4-15.8-19.3-1.5-27c12.3-6.6,14,8.5,20.2,15.3c13.6-6.9,27.4-13.9,40.3-20.5
			c-2.3-12.7-33.5-9.9-16.7-32.6c3.9-5.3,31.3,11.7,40.5,24.9c16.7-3.9,33.6-7.8,50.4-11.8c0.2,0.3,0.3,0.7,0.5,1
			C635.7,324.3,638.3,333.1,642.9,340.8L642.9,340.8z"/>
		<path class="st1" d="M288.6,161.7c16.7-56.9,68.5-98.9,125.9-110.7c0,0,4.7,10.2-4.1,9.3c-12.4-1.2-22.9,10.1-34,15.8
			c-0.9,15.2,25.9,27.2,14,38c-19.7,18-17.5-16.2-32.4-18.4c-20.6,17.2-39,38.4-49.3,65.7C302,161.5,295.3,161.6,288.6,161.7z"/>
		<path class="st0" d="M210.3,140.1c4.4,12.8,3.4,22.5-12.6,22.6c-25.4,0.2-50.8-0.2-76.2-0.6c-7.7-0.1-12.1-4.9-12.1-12.4
			c0-7.5,4.7-9.8,12-9.8C150.8,140.3,180.2,140.1,210.3,140.1z"/>
		<path class="st0" d="M248.1,93.4c-5.5,9.1-10.1,16.6-14.5,23.9c-18,0-35.7,0.5-53.4-0.3c-5.9-0.3-8.4-5.7-8-11.9
			c0.4-7.1,4.9-11.3,11-11.5C204.1,93.1,224.9,93.4,248.1,93.4z"/>
		<path class="st0" d="M820.5,453.8c-2.2-2.8-4.4-5.5-6.6-8.2C816.1,448.3,818.3,451,820.5,453.8z"/>
		<path class="st0" d="M442.5,442.9"/>
		<path class="st1" d="M442.5,319"/>
		<path class="st1" d="M593.3,99.3c-23,31.9-46.1,63.8-71.3,98.7c26.2-12,49.3-22.3,72.2-33.1c6.9-3.2,13.2-4.7,17.2,2.8
			c4.1,7.7-2.6,11.2-7.8,14.1c-35.6,19.4-71.9,37.8-106.9,58.2c-11.8,6.9-11.6,25.4-25.7,32.7c-40.9,25.3-89.8-25.2-63.8-64.6
			c10.9-19.5,29.9-25.3,52.3-20.2C495.5,146.4,546.4,126.1,593.3,99.3L593.3,99.3z M444.3,238.4c29.6-32.5,56.1-61.5,77.4-84.9
			c-25.9,6.9-47.2,32.8-69.5,55.8c-29.1-7.2-41.9,35.8-14.2,44.5c9.3,3,18.7,1.8,27.8-8.9c-20.4,12.7-41.6-5.6-24.4-23.6
			C442.2,225.7,442.8,229.3,444.3,238.4z"/>
		<path class="st1" d="M594.9,227.8c9.7,1.6,23.8-4.3,25.4,11.6c1.1,11.1-9,12.6-17.4,11.1c-11.4-2-30,7.8-32-11.3
			C569.2,223.4,585.7,229.6,594.9,227.8z"/>
		<path class="st1" d="M456.3,380.4c0,6.6,0.5,11.9-0.1,17.2c-0.3,12.9-22.1,13.1-21.6-0.5c0-10.6-0.5-21.3,0.3-31.9
			c0.5-6.4,6.8-9.7,12.2-8.4C461.6,360.2,454.6,372.8,456.3,380.4L456.3,380.4z"/>
		<path class="st1" d="M510.8,119.6c-8.6-0.9-14.4-4-12.5-9.9c4.2-13,8.7-27.1,23.5-32c5.9-2,12.1,5.2,10.4,9.6
			C527.5,99.8,520.4,111.7,510.8,119.6L510.8,119.6z"/>
		<path class="st1" d="M456.3,82.4c-1.6,8.6,3.9,20.9-10.5,22.2c-10,0.9-11.7-8.2-10.4-15c2-10.4-9-27.8,9.8-29.7
			C460.7,58.4,454,74.1,456.3,82.4z"/>
	</g>
</g>
</svg>
