<?xml version="1.0" encoding="UTF-8"?>
<svg id="Layer_2" data-name="Layer 2" xmlns="http://www.w3.org/2000/svg" width="756.62" height="610.4" viewBox="0 0 756.62 610.4">
  <g id="Layer_2-2" data-name="Layer 2">
    <g>
      <circle cx="451.41" cy="305.2" r="305.2" style="fill: #353535; stroke-width: 0px;"/>
      <g id="Layer_1-2" data-name="Layer 1-2">
        <g>
          <path d="m257.13,367.68c-60.59.27-120.4.35-180.99.75-8.28-3.81-13.58-10.78-11.58-19.65,1.07-8,6.59-12.42,14.8-12.44,69.99-.05,139.98-.61,209.96.5,15.38.25,21.52-23.09,23.16-26.16,10.13-1.4,27.67,4.44,28.28-10.48.09-9.01-6.77-10.32-13.97-10.32-102.62-.15-205.23-.39-307.84-.31-25.99,3.07-24.5-31.94.03-31.08,118.27-.17,236.54-.57,354.81-.75,7.62,0,13.26-2.31,13.1-10.4-.18-8.64-2.09-16.86-13.88-16.9-59.94-.5-126.4-.56-183.16-.54C208.86,109.69,317.37,22.97,473.72,25.68c154.33,2.68,268.44,155.76,257.44,287.82-17.55,210.58-176.08,275.12-281.73,275.12-176.09,0-255.5-157.8-264.85-157.74-40.76.25-61.56-4.6-102.32-3.94-11.25.18-16.29-4.28-16.23-14.5.06-10.55,6.17-15.71,16.91-15.7,59.64.08,119.29-.59,178.91.4,11.68.19,17.6-4.51,19.47-10.64,2.56-8.42-3.21-17.13-11.87-18.7l-12.32-.13Z" style="fill: #a4a4a5; stroke-width: 0px;"/>
          <path d="m247.38,229.92c21.51-73.4,88.33-127.57,162.46-142.85,0,0,6.06,13.13-5.31,12.03-16.05-1.55-29.49,13.09-43.81,20.33-1.17,19.61,33.36,35.03,18,49.06-25.43,23.25-22.6-20.85-41.84-23.71-26.59,22.22-50.25,49.54-63.57,84.81-8.64.1-17.29.22-25.93.32Z" style="fill: #181c20; stroke-width: 0px;"/>
          <path d="m146.45,202.12c5.72,16.55,4.45,28.99-16.26,29.18-32.77.31-65.55-.22-98.34-.74-9.96-.15-15.57-6.3-15.56-16.01.01-9.65,6.1-12.67,15.47-12.58,37.92.35,75.84.14,114.68.14Z" style="fill: #a4a4a5; stroke-width: 0px;"/>
          <path d="m195.2,141.92c-7.1,11.71-13.55,18.98-18.71,30.87-23.18,0-46.05.63-68.83-.36-7.55-.34-10.8-7.41-10.32-15.37.54-9.11,6.31-14.62,14.15-14.85,26.89-.77,53.8-.3,83.71-.3Z" style="fill: #a4a4a5; stroke-width: 0px;"/>
          <path d="m640.56,149.5c-29.73,41.14-59.45,82.29-91.96,127.27,33.76-15.43,63.59-28.76,93.1-42.73,8.85-4.19,16.97-6.05,22.14,3.64,5.28,9.88-3.33,14.46-10.13,18.17-45.98,25.03-92.74,48.7-137.87,75.15-15.16,8.89-14.93,32.74-33.13,42.14-52.81,32.61-115.9-32.53-82.32-83.32,14.11-25.1,38.53-32.69,67.42-26.03,46.61-53.55,112.27-79.74,172.75-114.27h0Zm-192.3,179.4c38.23-41.94,72.34-79.36,99.87-109.57-33.4,8.91-60.92,42.28-89.64,71.93-37.49-9.3-54.04,46.21-18.32,57.37,11.99,3.83,24.09,2.27,35.83-11.52-26.28,16.32-53.72-7.21-31.42-30.41.98,5.92,1.74,10.48,3.68,22.2Z" style="fill: #181c20; stroke-width: 0px;"/>
          <path d="m642.63,315.27c12.54,2.03,30.72-5.59,32.82,14.9,1.47,14.29-11.57,16.29-22.5,14.39-14.76-2.58-38.72,10.1-41.31-14.62-2.13-20.35,19.04-12.37,30.99-14.67Z" style="fill: #181c20; stroke-width: 0px;"/>
          <path d="m463.83,512.15c0,8.46.61,15.39-.15,22.15-.45,16.7-28.57,16.95-27.82-.65,0-13.71-.71-27.49.43-41.1.7-8.27,8.77-12.51,15.71-10.86,18.69,4.45,9.61,20.66,11.84,30.47h-.01Z" style="fill: #181c20; stroke-width: 0px;"/>
          <path d="m534.16,175.69c-11.08-1.11-18.63-5.11-16.14-12.84,5.41-16.81,11.26-35.01,30.36-41.34,7.65-2.53,15.64,6.66,13.48,12.33-6.22,16.31-15.34,31.61-27.7,41.83h0Z" style="fill: #181c20; stroke-width: 0px;"/>
          <path d="m463.77,127.72c-2.1,11.13,5.04,26.95-13.5,28.69-12.93,1.21-15.04-10.58-13.38-19.33,2.55-13.39-11.56-35.81,12.62-38.28,20.02-2.04,11.34,18.22,14.26,28.91Z" style="fill: #181c20; stroke-width: 0px;"/>
        </g>
      </g>
    </g>
  </g>
</svg>