<?xml version="1.0" encoding="UTF-8"?>
<svg id="Layer_2" data-name="Layer 2" xmlns="http://www.w3.org/2000/svg" width="736.1" height="610.4" viewBox="0 0 736.1 610.4">
  <g id="Layer_2-2" data-name="Layer 2">
    <g>
      <circle cx="430.9" cy="305.2" r="305.2" style="fill: #353535; stroke-width: 0px;"/>
      <g id="Layer_1-2" data-name="Layer 1-2">
        <g>
          <path d="m242.55,364.2c-55.79.25-110.89.33-166.64.69-3.32.02-6.61-1.01-9.2-3.09-4.71-3.77-7.24-9.08-5.81-15.42,1.01-7.54,6.22-11.72,13.96-11.73,20.52-.02,196.85-2.69,231.17-6.37,19.86-2.13,19.15-31.25-.79-32.38-51.91-2.96-247.86-5.36-286.66-5.36-.48,0-.96.03-1.44.08-23.76,2.17-22.16-30.19.75-29.39,64.06-.09,260.64,6.03,337.18-.59,4.65-.4,6.6-9.4,5.96-17.7-.61-7.8-7.28-13.74-15.1-13.62l-134.29,1.99c-.32,0-.63.02-.95.04-4.84.38-45.78,3.5-48.57-.04-14.18-17.97,51.59-109.48,135.6-158.14,44.48-25.76,96.61-36.65,158.11-35.58,145.57,2.52,253.22,146.92,242.83,271.49-16.55,198.63-166.09,259.52-265.75,259.52-73.39,0-136.45-28.55-178.35-60.11-52.94-39.87-75.52-84.7-80.45-84.67-38.44.23-58.07-4.34-96.52-3.72-10.61.17-15.37-4.04-15.31-13.68.06-9.95,5.82-14.82,15.95-14.81,56.26.07,112.52-.56,168.76.38,11.02.18,16.61-4.25,18.36-10.03,1.41-4.63.15-9.36-2.77-12.79-2.69-3.16-6.74-4.83-10.88-4.87l-9.15-.1Z" style="fill: #dbdbdb; stroke-width: 0px;"/>
          <path d="m211.91,242.54c19.44-66.33,106.2-120.45,173.18-134.25,0,0,5.48,11.86-4.8,10.87-14.51-1.4-109.66,64.57-118.57,117.92-18.76,40.58-45.75,19.35-49.81,5.46Z" style="fill: #353535; stroke-width: 0px;"/>
          <path d="m593.58,164.68c-26.86,37.18-53.72,74.36-83.1,115.01-26.38,43.05-43.09,78.59-59.54,87.08-47.72,29.47-104.73-29.4-74.39-75.29,12.75-22.69,34.82-29.54,60.92-23.52,42.12-48.39,101.45-72.06,156.1-103.26h0Z" style="fill: #353535; stroke-width: 0px;"/>
          <path d="m595.46,314.48c11.33,1.83,27.76-5.05,29.66,13.47,1.33,12.92-10.46,14.72-20.33,13-13.34-2.33-34.99,9.13-37.33-13.21-1.92-18.39,17.21-11.18,28-13.26Z" style="fill: #353535; stroke-width: 0px;"/>
          <path d="m433.89,492.39c0,7.65.55,13.91-.14,20.02-.4,15.09-25.81,15.32-25.14-.58,0-12.39-.64-24.84.38-37.14.63-7.47,7.93-11.31,14.2-9.82,16.89,4.02,8.69,18.66,10.7,27.54h-.01Z" style="fill: #353535; stroke-width: 0px;"/>
          <path d="m497.44,188.35c-10.01-1-16.83-4.62-14.58-11.6,4.88-15.19,10.18-31.64,27.43-37.35,6.91-2.29,14.13,6.02,12.18,11.15-5.62,14.74-13.86,28.56-25.03,37.8h0Z" style="fill: #353535; stroke-width: 0px;"/>
          <path d="m433.83,145.01c-1.9,10.06,4.56,24.35-12.19,25.93-11.68,1.1-13.59-9.56-12.09-17.46,2.31-12.1-10.45-32.36,11.4-34.59,18.09-1.84,10.25,16.46,12.88,26.13Z" style="fill: #353535; stroke-width: 0px;"/>
        </g>
      </g>
    </g>
  </g>
</svg>